<svg width="26" height="25" viewBox="0 0 26 25" fill="none" xmlns="http://www.w3.org/2000/svg">
<path fill-rule="evenodd" clip-rule="evenodd" d="M13.0623 6.62577e-06C9.96138 -0.00308879 6.96067 1.07849 4.59794 3.05093C2.2352 5.02336 0.664874 7.75771 0.168376 10.764C-0.328121 13.7702 0.281662 16.8519 1.88845 19.4567C3.49523 22.0615 5.99399 24.0192 8.93694 24.9789C9.59379 25.0969 9.8261 24.6957 9.8261 24.3574C9.8261 24.0191 9.8261 23.2481 9.8261 22.1782C6.18134 22.957 5.41234 20.4552 5.41234 20.4552C5.17054 19.6798 4.65685 19.0136 3.96244 18.5749C2.78491 17.7882 4.05857 17.7882 4.05857 17.7882C4.47135 17.8454 4.86544 17.9942 5.21102 18.2232C5.55659 18.4522 5.84458 18.7554 6.05317 19.1099C6.23041 19.4255 6.46937 19.7037 6.75633 19.9284C7.04329 20.1531 7.37261 20.3199 7.72539 20.4194C8.07817 20.5188 8.44746 20.5488 8.81208 20.5077C9.17669 20.4666 9.52946 20.3552 9.85013 20.1798C9.9004 19.5326 10.1845 18.9244 10.6512 18.4647C7.75139 18.1422 4.70742 17.0408 4.70742 12.1708C4.68751 10.8987 5.16648 9.6677 6.04516 8.7328C5.65381 7.62667 5.69955 6.41655 6.17333 5.34196C6.17333 5.34196 7.27076 4.99579 9.76201 6.65581C11.9013 6.07894 14.1593 6.07894 16.2985 6.65581C18.7898 4.99579 19.8792 5.34196 19.8792 5.34196C20.3596 6.40518 20.4167 7.60661 20.0394 8.7092C20.9181 9.6441 21.3971 10.8751 21.3772 12.1472C21.3772 17.0722 18.3252 18.1501 15.4174 18.4411C15.7292 18.749 15.9699 19.119 16.1234 19.5263C16.2768 19.9335 16.3392 20.3683 16.3066 20.8014C16.3066 22.5164 16.3066 23.9011 16.3066 24.3181C16.3066 24.735 16.5389 25.0576 17.2037 24.9317C20.1132 23.9467 22.5745 21.9834 24.1529 19.3887C25.7313 16.7941 26.3252 13.735 25.8297 10.7519C25.3342 7.76889 23.7811 5.05383 21.4449 3.0864C19.1087 1.11898 16.1397 0.0258031 13.0623 6.62577e-06Z" fill="#231E1B"/>
</svg>
